<mxfile host="app.diagrams.net" modified="2023-11-09T10:16:04.091Z" agent="Mozilla/5.0 (X11; Linux x86_64) AppleWebKit/537.36 (KHTML, like Gecko) Chrome/119.0.0.0 Safari/537.36" etag="c_T4O_z5VZ1HOaKZ1sjK" version="22.1.0" type="google">
  <diagram name="Page-1" id="TScwOC72J6fxFWOlaMV2">
    <mxGraphModel grid="1" page="1" gridSize="10" guides="1" tooltips="1" connect="1" arrows="1" fold="1" pageScale="1" pageWidth="827" pageHeight="1169" math="0" shadow="0">
      <root>
        <mxCell id="0" />
        <mxCell id="1" parent="0" />
        <mxCell id="TZbRZxaE1eoiw7HBzXzt-2" value="chessverse.mooo.com" style="swimlane;whiteSpace=wrap;html=1;" vertex="1" parent="1">
          <mxGeometry x="-380" y="80" width="710" height="540" as="geometry" />
        </mxCell>
        <mxCell id="TZbRZxaE1eoiw7HBzXzt-3" value="proxy (nginx) (http, port 80)" style="swimlane;whiteSpace=wrap;html=1;" vertex="1" parent="TZbRZxaE1eoiw7HBzXzt-2">
          <mxGeometry x="50" y="330" width="270" height="185" as="geometry" />
        </mxCell>
        <mxCell id="TZbRZxaE1eoiw7HBzXzt-7" value="stocas.chessverse.mooo.com/*&lt;br style=&quot;border-color: var(--border-color);&quot;&gt;gitlab.chessverse.moo.com&lt;br style=&quot;border-color: var(--border-color);&quot;&gt;taiga.chessverse.mooo.com" style="rounded=0;whiteSpace=wrap;html=1;" vertex="1" parent="TZbRZxaE1eoiw7HBzXzt-3">
          <mxGeometry x="35" y="35" width="200" height="60" as="geometry" />
        </mxCell>
        <mxCell id="TZbRZxaE1eoiw7HBzXzt-64" value="chessverse.mooo.com" style="rounded=0;whiteSpace=wrap;html=1;" vertex="1" parent="TZbRZxaE1eoiw7HBzXzt-3">
          <mxGeometry x="40" y="100" width="190" height="20" as="geometry" />
        </mxCell>
        <mxCell id="TZbRZxaE1eoiw7HBzXzt-69" value="chessverse.mooo.com/[api|async]" style="rounded=0;whiteSpace=wrap;html=1;" vertex="1" parent="TZbRZxaE1eoiw7HBzXzt-3">
          <mxGeometry x="40" y="125" width="190" height="25" as="geometry" />
        </mxCell>
        <mxCell id="TZbRZxaE1eoiw7HBzXzt-14" value="stocas ([stocas|gitlab|taiga].chessverse.mooo.com)" style="swimlane;whiteSpace=wrap;html=1;" vertex="1" parent="TZbRZxaE1eoiw7HBzXzt-2">
          <mxGeometry x="10" y="50" width="370" height="200" as="geometry" />
        </mxCell>
        <mxCell id="TZbRZxaE1eoiw7HBzXzt-15" value="mattermost" style="rounded=0;whiteSpace=wrap;html=1;" vertex="1" parent="TZbRZxaE1eoiw7HBzXzt-14">
          <mxGeometry x="10" y="30" width="120" height="30" as="geometry" />
        </mxCell>
        <mxCell id="TZbRZxaE1eoiw7HBzXzt-16" value="gitlab" style="rounded=0;whiteSpace=wrap;html=1;" vertex="1" parent="TZbRZxaE1eoiw7HBzXzt-14">
          <mxGeometry x="224.5" y="70" width="76" height="40" as="geometry" />
        </mxCell>
        <mxCell id="TZbRZxaE1eoiw7HBzXzt-17" value="taiga" style="rounded=0;whiteSpace=wrap;html=1;" vertex="1" parent="TZbRZxaE1eoiw7HBzXzt-14">
          <mxGeometry x="10" y="70" width="120" height="30" as="geometry" />
        </mxCell>
        <mxCell id="TZbRZxaE1eoiw7HBzXzt-24" style="edgeStyle=orthogonalEdgeStyle;rounded=0;orthogonalLoop=1;jettySize=auto;html=1;" edge="1" parent="TZbRZxaE1eoiw7HBzXzt-14" source="TZbRZxaE1eoiw7HBzXzt-18" target="TZbRZxaE1eoiw7HBzXzt-19">
          <mxGeometry relative="1" as="geometry" />
        </mxCell>
        <mxCell id="TZbRZxaE1eoiw7HBzXzt-18" value="jenkins" style="rounded=0;whiteSpace=wrap;html=1;" vertex="1" parent="TZbRZxaE1eoiw7HBzXzt-14">
          <mxGeometry x="288.5" y="137.5" width="79" height="30" as="geometry" />
        </mxCell>
        <mxCell id="TZbRZxaE1eoiw7HBzXzt-20" style="edgeStyle=orthogonalEdgeStyle;rounded=0;orthogonalLoop=1;jettySize=auto;html=1;" edge="1" parent="TZbRZxaE1eoiw7HBzXzt-14" source="TZbRZxaE1eoiw7HBzXzt-19" target="TZbRZxaE1eoiw7HBzXzt-18">
          <mxGeometry relative="1" as="geometry" />
        </mxCell>
        <mxCell id="TZbRZxaE1eoiw7HBzXzt-19" value="sonarqube" style="rounded=0;whiteSpace=wrap;html=1;" vertex="1" parent="TZbRZxaE1eoiw7HBzXzt-14">
          <mxGeometry x="140" y="140" width="95" height="25" as="geometry" />
        </mxCell>
        <mxCell id="TZbRZxaE1eoiw7HBzXzt-36" value="" style="endArrow=classic;startArrow=classic;html=1;rounded=0;entryX=0.5;entryY=0;entryDx=0;entryDy=0;exitX=1;exitY=0.5;exitDx=0;exitDy=0;" edge="1" parent="TZbRZxaE1eoiw7HBzXzt-14" source="TZbRZxaE1eoiw7HBzXzt-16" target="TZbRZxaE1eoiw7HBzXzt-18">
          <mxGeometry width="50" height="50" relative="1" as="geometry">
            <mxPoint x="320" y="130" as="sourcePoint" />
            <mxPoint x="370" y="80" as="targetPoint" />
          </mxGeometry>
        </mxCell>
        <mxCell id="TZbRZxaE1eoiw7HBzXzt-37" value="" style="endArrow=classic;startArrow=classic;html=1;rounded=0;entryX=0.079;entryY=0.5;entryDx=0;entryDy=0;entryPerimeter=0;exitX=0.5;exitY=0;exitDx=0;exitDy=0;" edge="1" parent="TZbRZxaE1eoiw7HBzXzt-14" source="TZbRZxaE1eoiw7HBzXzt-19" target="TZbRZxaE1eoiw7HBzXzt-16">
          <mxGeometry width="50" height="50" relative="1" as="geometry">
            <mxPoint x="160" y="130" as="sourcePoint" />
            <mxPoint x="210" y="80" as="targetPoint" />
          </mxGeometry>
        </mxCell>
        <mxCell id="TZbRZxaE1eoiw7HBzXzt-39" value="grafana" style="rounded=0;whiteSpace=wrap;html=1;" vertex="1" parent="TZbRZxaE1eoiw7HBzXzt-14">
          <mxGeometry x="10" y="110" width="120" height="30" as="geometry" />
        </mxCell>
        <mxCell id="TZbRZxaE1eoiw7HBzXzt-42" value="chessverse (chessverse.mooo.com)" style="swimlane;whiteSpace=wrap;html=1;startSize=23;" vertex="1" parent="TZbRZxaE1eoiw7HBzXzt-2">
          <mxGeometry x="400" y="100" width="270" height="190" as="geometry" />
        </mxCell>
        <mxCell id="TZbRZxaE1eoiw7HBzXzt-47" style="edgeStyle=orthogonalEdgeStyle;rounded=0;orthogonalLoop=1;jettySize=auto;html=1;entryX=0.5;entryY=0;entryDx=0;entryDy=0;" edge="1" parent="TZbRZxaE1eoiw7HBzXzt-42" source="TZbRZxaE1eoiw7HBzXzt-45" target="TZbRZxaE1eoiw7HBzXzt-46">
          <mxGeometry relative="1" as="geometry" />
        </mxCell>
        <mxCell id="TZbRZxaE1eoiw7HBzXzt-45" value="main page/downloads" style="rounded=0;whiteSpace=wrap;html=1;" vertex="1" parent="TZbRZxaE1eoiw7HBzXzt-42">
          <mxGeometry x="75" y="40" width="120" height="30" as="geometry" />
        </mxCell>
        <mxCell id="TZbRZxaE1eoiw7HBzXzt-46" value="copilot minigame (/webapp)" style="rounded=0;whiteSpace=wrap;html=1;" vertex="1" parent="TZbRZxaE1eoiw7HBzXzt-42">
          <mxGeometry x="160" y="105" width="100" height="75" as="geometry" />
        </mxCell>
        <mxCell id="TZbRZxaE1eoiw7HBzXzt-60" value="backend" style="swimlane;whiteSpace=wrap;html=1;" vertex="1" parent="TZbRZxaE1eoiw7HBzXzt-2">
          <mxGeometry x="380" y="322.5" width="310" height="200" as="geometry" />
        </mxCell>
        <mxCell id="TZbRZxaE1eoiw7HBzXzt-51" value="backend-async (websockets)" style="rounded=0;whiteSpace=wrap;html=1;" vertex="1" parent="TZbRZxaE1eoiw7HBzXzt-60">
          <mxGeometry x="52.5" y="25" width="100" height="40" as="geometry" />
        </mxCell>
        <mxCell id="TZbRZxaE1eoiw7HBzXzt-52" value="backend (api)" style="rounded=0;whiteSpace=wrap;html=1;" vertex="1" parent="TZbRZxaE1eoiw7HBzXzt-60">
          <mxGeometry x="172.5" y="35" width="100" height="30" as="geometry" />
        </mxCell>
        <mxCell id="TZbRZxaE1eoiw7HBzXzt-53" value="db (mysql)" style="rounded=0;whiteSpace=wrap;html=1;" vertex="1" parent="TZbRZxaE1eoiw7HBzXzt-60">
          <mxGeometry x="142.5" y="115" width="70" height="30" as="geometry" />
        </mxCell>
        <mxCell id="TZbRZxaE1eoiw7HBzXzt-55" style="edgeStyle=orthogonalEdgeStyle;rounded=0;orthogonalLoop=1;jettySize=auto;html=1;entryX=0.5;entryY=0;entryDx=0;entryDy=0;" edge="1" parent="TZbRZxaE1eoiw7HBzXzt-60" source="TZbRZxaE1eoiw7HBzXzt-51" target="TZbRZxaE1eoiw7HBzXzt-53">
          <mxGeometry relative="1" as="geometry" />
        </mxCell>
        <mxCell id="TZbRZxaE1eoiw7HBzXzt-56" style="edgeStyle=orthogonalEdgeStyle;rounded=0;orthogonalLoop=1;jettySize=auto;html=1;entryX=0.5;entryY=0;entryDx=0;entryDy=0;" edge="1" parent="TZbRZxaE1eoiw7HBzXzt-60" source="TZbRZxaE1eoiw7HBzXzt-52" target="TZbRZxaE1eoiw7HBzXzt-53">
          <mxGeometry relative="1" as="geometry" />
        </mxCell>
        <mxCell id="TZbRZxaE1eoiw7HBzXzt-59" value="" style="endArrow=classic;startArrow=classic;html=1;rounded=0;entryX=0.75;entryY=1;entryDx=0;entryDy=0;exitX=1;exitY=0.5;exitDx=0;exitDy=0;" edge="1" parent="TZbRZxaE1eoiw7HBzXzt-2" source="TZbRZxaE1eoiw7HBzXzt-3" target="TZbRZxaE1eoiw7HBzXzt-52">
          <mxGeometry width="50" height="50" relative="1" as="geometry">
            <mxPoint x="432.5" y="455" as="sourcePoint" />
            <mxPoint x="662.5" y="445" as="targetPoint" />
            <Array as="points">
              <mxPoint x="622.5" y="435" />
            </Array>
          </mxGeometry>
        </mxCell>
        <mxCell id="TZbRZxaE1eoiw7HBzXzt-57" value="" style="endArrow=classic;startArrow=classic;html=1;rounded=0;entryX=0.19;entryY=0.975;entryDx=0;entryDy=0;entryPerimeter=0;exitX=1;exitY=0.5;exitDx=0;exitDy=0;" edge="1" parent="TZbRZxaE1eoiw7HBzXzt-2" source="TZbRZxaE1eoiw7HBzXzt-3" target="TZbRZxaE1eoiw7HBzXzt-51">
          <mxGeometry width="50" height="50" relative="1" as="geometry">
            <mxPoint x="432.5" y="455" as="sourcePoint" />
            <mxPoint x="512.5" y="435" as="targetPoint" />
          </mxGeometry>
        </mxCell>
        <mxCell id="TZbRZxaE1eoiw7HBzXzt-63" value="" style="edgeStyle=none;orthogonalLoop=1;jettySize=auto;html=1;endArrow=classic;startArrow=classic;endSize=8;startSize=8;rounded=0;entryX=0;entryY=0;entryDx=0;entryDy=0;exitX=0.25;exitY=1;exitDx=0;exitDy=0;" edge="1" parent="TZbRZxaE1eoiw7HBzXzt-2" source="TZbRZxaE1eoiw7HBzXzt-14" target="TZbRZxaE1eoiw7HBzXzt-7">
          <mxGeometry width="100" relative="1" as="geometry">
            <mxPoint x="130" y="350" as="sourcePoint" />
            <mxPoint x="230" y="350" as="targetPoint" />
            <Array as="points" />
          </mxGeometry>
        </mxCell>
        <mxCell id="TZbRZxaE1eoiw7HBzXzt-70" value="" style="endArrow=classic;startArrow=classic;html=1;rounded=0;exitX=1;exitY=0.25;exitDx=0;exitDy=0;entryX=0;entryY=1;entryDx=0;entryDy=0;" edge="1" parent="TZbRZxaE1eoiw7HBzXzt-2" source="TZbRZxaE1eoiw7HBzXzt-69" target="TZbRZxaE1eoiw7HBzXzt-60">
          <mxGeometry width="50" height="50" relative="1" as="geometry">
            <mxPoint x="320" y="490" as="sourcePoint" />
            <mxPoint x="380" y="450" as="targetPoint" />
          </mxGeometry>
        </mxCell>
        <mxCell id="TZbRZxaE1eoiw7HBzXzt-71" value="" style="endArrow=classic;startArrow=classic;html=1;rounded=0;exitX=1;exitY=0.75;exitDx=0;exitDy=0;entryX=0;entryY=0.75;entryDx=0;entryDy=0;" edge="1" parent="TZbRZxaE1eoiw7HBzXzt-2" source="TZbRZxaE1eoiw7HBzXzt-64" target="TZbRZxaE1eoiw7HBzXzt-42">
          <mxGeometry width="50" height="50" relative="1" as="geometry">
            <mxPoint x="330" y="480" as="sourcePoint" />
            <mxPoint x="380" y="430" as="targetPoint" />
            <Array as="points">
              <mxPoint x="340" y="380" />
              <mxPoint x="370" y="280" />
            </Array>
          </mxGeometry>
        </mxCell>
        <mxCell id="TZbRZxaE1eoiw7HBzXzt-73" value="developer" style="swimlane;whiteSpace=wrap;html=1;" vertex="1" parent="1">
          <mxGeometry x="-820" y="260" width="222" height="290" as="geometry" />
        </mxCell>
        <mxCell id="TZbRZxaE1eoiw7HBzXzt-75" value="browser" style="rounded=0;whiteSpace=wrap;html=1;" vertex="1" parent="TZbRZxaE1eoiw7HBzXzt-73">
          <mxGeometry x="40" y="40" width="120" height="30" as="geometry" />
        </mxCell>
        <mxCell id="TZbRZxaE1eoiw7HBzXzt-77" value="editor (vscode)" style="swimlane;whiteSpace=wrap;html=1;" vertex="1" parent="TZbRZxaE1eoiw7HBzXzt-73">
          <mxGeometry x="27" y="80" width="168" height="70" as="geometry" />
        </mxCell>
        <mxCell id="TZbRZxaE1eoiw7HBzXzt-79" value="exporter extension" style="rounded=0;whiteSpace=wrap;html=1;" vertex="1" parent="TZbRZxaE1eoiw7HBzXzt-77">
          <mxGeometry x="24" y="30" width="126" height="30" as="geometry" />
        </mxCell>
        <mxCell id="TZbRZxaE1eoiw7HBzXzt-92" value="workdir (repo)" style="rounded=0;whiteSpace=wrap;html=1;" vertex="1" parent="TZbRZxaE1eoiw7HBzXzt-73">
          <mxGeometry x="20" y="158" width="175" height="32" as="geometry" />
        </mxCell>
        <mxCell id="TZbRZxaE1eoiw7HBzXzt-87" value="" style="endArrow=classic;html=1;rounded=0;exitX=1;exitY=0.5;exitDx=0;exitDy=0;entryX=0.001;entryY=0.125;entryDx=0;entryDy=0;entryPerimeter=0;" edge="1" parent="1" source="TZbRZxaE1eoiw7HBzXzt-75" target="TZbRZxaE1eoiw7HBzXzt-7">
          <mxGeometry relative="1" as="geometry">
            <mxPoint x="140" y="690" as="sourcePoint" />
            <mxPoint x="240" y="690" as="targetPoint" />
            <Array as="points">
              <mxPoint x="-510" y="440" />
            </Array>
          </mxGeometry>
        </mxCell>
        <mxCell id="TZbRZxaE1eoiw7HBzXzt-88" value="&lt;font style=&quot;font-size: 14px;&quot;&gt;stocas&lt;/font&gt;" style="edgeLabel;resizable=0;html=1;align=center;verticalAlign=middle;" connectable="0" vertex="1" parent="TZbRZxaE1eoiw7HBzXzt-87">
          <mxGeometry relative="1" as="geometry" />
        </mxCell>
        <mxCell id="TZbRZxaE1eoiw7HBzXzt-89" value="" style="endArrow=classic;html=1;rounded=0;entryX=0;entryY=0.5;entryDx=0;entryDy=0;exitX=1;exitY=0.5;exitDx=0;exitDy=0;" edge="1" parent="1" source="TZbRZxaE1eoiw7HBzXzt-79" target="TZbRZxaE1eoiw7HBzXzt-7">
          <mxGeometry relative="1" as="geometry">
            <mxPoint x="-280" y="800" as="sourcePoint" />
            <mxPoint x="-180" y="800" as="targetPoint" />
            <Array as="points">
              <mxPoint x="-510" y="480" />
            </Array>
          </mxGeometry>
        </mxCell>
        <mxCell id="TZbRZxaE1eoiw7HBzXzt-90" value="&lt;font style=&quot;font-size: 14px;&quot;&gt;send logs to grafana&lt;br&gt;&lt;/font&gt;" style="edgeLabel;resizable=0;html=1;align=center;verticalAlign=middle;" connectable="0" vertex="1" parent="TZbRZxaE1eoiw7HBzXzt-89">
          <mxGeometry relative="1" as="geometry" />
        </mxCell>
        <mxCell id="TZbRZxaE1eoiw7HBzXzt-95" value="" style="endArrow=classic;startArrow=classic;html=1;rounded=0;exitX=1;exitY=0.5;exitDx=0;exitDy=0;entryX=0;entryY=1;entryDx=0;entryDy=0;" edge="1" parent="1" source="TZbRZxaE1eoiw7HBzXzt-92" target="TZbRZxaE1eoiw7HBzXzt-7">
          <mxGeometry width="50" height="50" relative="1" as="geometry">
            <mxPoint x="-490" y="560" as="sourcePoint" />
            <mxPoint x="-440" y="510" as="targetPoint" />
            <Array as="points">
              <mxPoint x="-490" y="550" />
            </Array>
          </mxGeometry>
        </mxCell>
        <mxCell id="TZbRZxaE1eoiw7HBzXzt-96" value="&lt;font style=&quot;font-size: 14px;&quot;&gt;gitlab (with jump on git@proxy)&lt;/font&gt;" style="edgeLabel;html=1;align=center;verticalAlign=middle;resizable=0;points=[];" connectable="0" vertex="1" parent="TZbRZxaE1eoiw7HBzXzt-95">
          <mxGeometry x="-0.0868" y="1" relative="1" as="geometry">
            <mxPoint as="offset" />
          </mxGeometry>
        </mxCell>
        <mxCell id="TZbRZxaE1eoiw7HBzXzt-98" value="user (desktop app)" style="swimlane;whiteSpace=wrap;html=1;" vertex="1" parent="1">
          <mxGeometry x="-740" y="640" width="200" height="200" as="geometry" />
        </mxCell>
        <mxCell id="TZbRZxaE1eoiw7HBzXzt-99" value="ui" style="rounded=0;whiteSpace=wrap;html=1;" vertex="1" parent="TZbRZxaE1eoiw7HBzXzt-98">
          <mxGeometry x="40" y="30" width="120" height="30" as="geometry" />
        </mxCell>
        <mxCell id="TZbRZxaE1eoiw7HBzXzt-100" value="api requests (http) (e.g. auth)" style="rounded=0;whiteSpace=wrap;html=1;" vertex="1" parent="TZbRZxaE1eoiw7HBzXzt-98">
          <mxGeometry x="39" y="70" width="131" height="40" as="geometry" />
        </mxCell>
        <mxCell id="TZbRZxaE1eoiw7HBzXzt-101" value="game (real time, async, websockets)" style="rounded=0;whiteSpace=wrap;html=1;" vertex="1" parent="TZbRZxaE1eoiw7HBzXzt-98">
          <mxGeometry x="30" y="130" width="140" height="40" as="geometry" />
        </mxCell>
        <mxCell id="TZbRZxaE1eoiw7HBzXzt-103" value="" style="endArrow=classic;html=1;rounded=0;exitX=1;exitY=0.5;exitDx=0;exitDy=0;entryX=0.14;entryY=1.05;entryDx=0;entryDy=0;entryPerimeter=0;" edge="1" parent="1" source="TZbRZxaE1eoiw7HBzXzt-100" target="TZbRZxaE1eoiw7HBzXzt-69">
          <mxGeometry relative="1" as="geometry">
            <mxPoint x="-430" y="700" as="sourcePoint" />
            <mxPoint x="-330" y="700" as="targetPoint" />
            <Array as="points">
              <mxPoint x="-310" y="700" />
            </Array>
          </mxGeometry>
        </mxCell>
        <mxCell id="TZbRZxaE1eoiw7HBzXzt-104" value="&lt;font style=&quot;font-size: 14px;&quot;&gt;api access&lt;/font&gt;" style="edgeLabel;resizable=0;html=1;align=center;verticalAlign=middle;" connectable="0" vertex="1" parent="TZbRZxaE1eoiw7HBzXzt-103">
          <mxGeometry relative="1" as="geometry" />
        </mxCell>
        <mxCell id="TZbRZxaE1eoiw7HBzXzt-107" value="" style="endArrow=classic;startArrow=classic;html=1;rounded=0;exitX=1;exitY=0.5;exitDx=0;exitDy=0;entryX=0.455;entryY=1;entryDx=0;entryDy=0;entryPerimeter=0;" edge="1" parent="1" source="TZbRZxaE1eoiw7HBzXzt-101" target="TZbRZxaE1eoiw7HBzXzt-69">
          <mxGeometry width="50" height="50" relative="1" as="geometry">
            <mxPoint x="-290" y="790" as="sourcePoint" />
            <mxPoint x="-240" y="740" as="targetPoint" />
            <Array as="points">
              <mxPoint x="-290" y="730" />
            </Array>
          </mxGeometry>
        </mxCell>
        <mxCell id="TZbRZxaE1eoiw7HBzXzt-108" value="&lt;font style=&quot;font-size: 14px;&quot;&gt;websockets&lt;/font&gt;" style="edgeLabel;html=1;align=center;verticalAlign=middle;resizable=0;points=[];" connectable="0" vertex="1" parent="TZbRZxaE1eoiw7HBzXzt-107">
          <mxGeometry x="-0.1245" y="-4" relative="1" as="geometry">
            <mxPoint as="offset" />
          </mxGeometry>
        </mxCell>
      </root>
    </mxGraphModel>
  </diagram>
</mxfile>
